HIERARCHY
ROOT Hips
{
	OFFSET	0.00	0.00	0.00
	CHANNELS 6 Xposition Yposition Zposition Zrotation Xrotation Yrotation
	JOINT LeftUpLeg
	{
		OFFSET	 0.126116	-0.065224	 0.014019
		CHANNELS 3 Zrotation Xrotation Yrotation
		JOINT LeftLeg
		{
			OFFSET	 0.000000	 0.569914	 0.000000
			CHANNELS 3 Zrotation Xrotation Yrotation
			JOINT LeftFoot
			{
				OFFSET	 0.000000	 0.544423	 0.000000
				CHANNELS 3 Zrotation Xrotation Yrotation
				JOINT LeftToeBase
				{
					OFFSET	 0.000000	 0.207117	 0.000000
					CHANNELS 3 Zrotation Xrotation Yrotation
					End Site
					{
						OFFSET	 0.000000	 0.207117	 0.000000
					}
				}
			}
		}
	}
	JOINT RightUpLeg
	{
		OFFSET	-0.124023	-0.065224	 0.008373
		CHANNELS 3 Zrotation Xrotation Yrotation
		JOINT RightLeg
		{
			OFFSET	 0.000000	 0.570047	 0.000000
			CHANNELS 3 Zrotation Xrotation Yrotation
			JOINT RightFoot
			{
				OFFSET	 0.000000	 0.544354	 0.000000
				CHANNELS 3 Zrotation Xrotation Yrotation
				JOINT RightToeBase
				{
					OFFSET	 0.000000	 0.207540	 0.000000
					CHANNELS 3 Zrotation Xrotation Yrotation
					End Site
					{
						OFFSET	 0.000000	 0.207540	 0.000000
					}
				}
			}
		}
	}
	JOINT Spine
	{
		OFFSET	 0.000184	 0.117403	 0.007763
		CHANNELS 3 Zrotation Xrotation Yrotation
		JOINT Spine1
		{
			OFFSET	 0.000000	 0.137269	 0.000000
			CHANNELS 3 Zrotation Xrotation Yrotation
			JOINT Spine2
			{
				OFFSET	 0.000000	 0.156879	 0.000000
				CHANNELS 3 Zrotation Xrotation Yrotation
				JOINT LeftShoulder
				{
					OFFSET	 0.080501	 0.160143	 0.002496
					CHANNELS 3 Zrotation Xrotation Yrotation
					JOINT LeftArm
					{
						OFFSET	 0.000000	 0.164363	 0.000000
						CHANNELS 3 Zrotation Xrotation Yrotation
						JOINT LeftForeArm
						{
							OFFSET	 0.000000	 0.364576	 0.000000
							CHANNELS 3 Zrotation Xrotation Yrotation
							JOINT LeftHand
							{
								OFFSET	 0.000000	 0.360812	 0.000000
								CHANNELS 3 Zrotation Xrotation Yrotation
								JOINT LeftHandIndex1
								{
									OFFSET	 0.000000	 0.086006	 0.000000
									CHANNELS 3 Zrotation Xrotation Yrotation
									JOINT LeftHandIndex2
									{
										OFFSET	 0.000000	 0.047237	 0.000000
										CHANNELS 3 Zrotation Xrotation Yrotation
										JOINT LeftHandIndex3
										{
											OFFSET	-0.004284	 0.038165	 0.000551
											CHANNELS 3 Zrotation Xrotation Yrotation
											End Site
											{
												OFFSET	-0.004284	 0.038165	 0.000551
											}
										}
									}
								}
							}
						}
					}
				}
				JOINT Neck
				{
					OFFSET	 0.000000	 0.176489	 0.000000
					CHANNELS 3 Zrotation Xrotation Yrotation
					JOINT Head
					{
						OFFSET	 0.000000	 0.077941	 0.001747
						CHANNELS 3 Zrotation Xrotation Yrotation
						End Site
						{
							OFFSET	 0.000000	 0.077941	 0.001747
						}
					}
				}
				JOINT RightShoulder
				{
					OFFSET	-0.080363	 0.159706	-0.000306
					CHANNELS 3 Zrotation Xrotation Yrotation
					JOINT RightArm
					{
						OFFSET	 0.000000	 0.164196	 0.000000
						CHANNELS 3 Zrotation Xrotation Yrotation
						JOINT RightForeArm
						{
							OFFSET	 0.000000	 0.365611	 0.000000
							CHANNELS 3 Zrotation Xrotation Yrotation
							JOINT RightHand
							{
								OFFSET	 0.000000	 0.360648	 0.000000
								CHANNELS 3 Zrotation Xrotation Yrotation
								JOINT RightHandIndex1
								{
									OFFSET	 0.000000	 0.069977	 0.000000
									CHANNELS 3 Zrotation Xrotation Yrotation
									JOINT RightHandIndex2
									{
										OFFSET	 0.000000	 0.052305	 0.000000
										CHANNELS 3 Zrotation Xrotation Yrotation
										JOINT RightHandIndex3
										{
											OFFSET	 0.009002	 0.042196	 0.000782
											CHANNELS 3 Zrotation Xrotation Yrotation
											End Site
											{
												OFFSET	 0.009002	 0.042196	 0.000782
											}
										}
									}
								}
							}
						}
					}
				}
			}
		}
	}
}
MOTION
Frames:    11
Frame Time: 0.03333334
 0.021120	 1.293451	 0.005465	-0.508285	 2.802729	-179.443200	-176.035300	 5.075763	-25.845670	 3.304169	-16.274850	 5.238359	 0.037433	 64.157920	 0.770747	 1.331492	 28.938720	-2.729976	 176.063800	 6.191887	 33.193170	-5.834149	-18.538810	-7.763470	-1.959452	 67.116210	 1.508230	-1.291574	 28.412070	 2.919370	-1.174534	 4.024092	 3.349857	-1.473335	 3.879279	-0.044296	-1.322801	-0.966063	-0.656108	-113.443600	 5.078588	 92.929080	 58.382400	 31.163760	-4.457207	 26.188470	-0.249697	 23.083470	-27.291020	-16.242170	 12.954020	-6.580301	 5.266122	 0.000000	 0.000000	 0.000000	 0.000000	 0.000000	 0.000000	 0.000000	 4.341811	-0.161791	-0.725505	 4.890812	 0.811535	 0.471285	 114.217300	-4.397747	-88.349490	-22.219350	 43.568780	-36.320730	-84.380760	-1.435971	-24.885090	-16.719980	-30.035830	-27.171290	-0.810904	 22.834850	 0.875004	 12.429030	 21.299850	-4.777442	-8.461165	 9.449091	-0.295246
 0.022230	 1.293566	 0.009753	-0.359003	 3.299773	 178.706400	-175.485300	 4.529932	-28.144740	 3.385892	-16.654930	 4.260650	-2.299850	 64.011790	 3.144023	 1.331492	 28.938720	-2.729976	 176.300500	 6.517858	 31.647230	-6.054680	-19.186780	-9.741369	-6.800569	 67.055470	 6.516507	-1.294089	 28.445740	 2.944060	 0.128638	 4.435310	-13.445270	-1.424103	 3.653374	-0.323363	-1.250261	-0.393148	-0.851449	-113.446900	 5.044196	 92.963060	 51.478210	 38.388890	 1.805799	 28.735660	-0.249997	 25.788920	-22.082080	-16.530600	 16.819790	-6.580301	 5.266122	 0.000000	 0.000000	 0.000000	 0.000000	 0.000000	 0.000000	 0.000000	 3.814128	-0.099596	-0.812057	 4.554720	 1.033050	 0.355128	 114.200900	-4.284330	-88.425060	-11.834980	 33.196360	-42.684450	-90.691630	-1.357772	-27.789320	 11.869220	-24.443540	-15.816540	-0.678223	 19.401360	 0.827183	 12.240160	 17.944150	-3.998536	-8.438901	 7.820719	-0.192533
 0.022451	 1.294691	 0.011063	-0.326814	 3.450902	 178.256900	-175.368500	 4.281971	-28.964820	 3.365972	-16.562390	 3.908870	-3.005220	 63.722840	 3.925669	 1.331492	 28.938720	-2.729976	 176.316700	 6.418080	 31.618720	-6.033391	-19.124480	-9.641884	-6.596684	 66.745940	 6.203697	-1.298437	 28.500690	 2.913547	 1.279068	 4.229646	-28.172780	-1.324925	 3.853241	-0.397898	-1.163350	-0.592842	-0.806546	-113.447900	 4.971067	 92.945220	 49.492790	 40.624570	 3.695650	 29.207780	-0.250575	 26.277100	-18.569220	-5.069996	 20.082980	-6.580301	 5.266122	 0.000000	 0.000000	 0.000000	 0.000000	 0.000000	 0.000000	 0.000000	 3.586559	-0.258632	-0.800006	 4.211287	 0.962441	 0.467962	 114.194000	-4.240572	-88.460540	-8.673215	 32.305360	-45.275940	-87.077260	-1.339152	-28.125770	 15.156000	-11.944350	-15.390350	-0.587910	 16.976880	 0.798984	 12.137330	 15.573350	-3.463777	-8.419357	 6.538375	-0.111443
 0.022461	 1.296154	 0.011638	-0.326244	 3.504003	 178.205500	-175.375700	 4.119720	-29.357100	 3.313146	-16.316640	 3.730903	-3.247309	 63.390850	 4.258477	 1.331492	 28.938720	-2.729976	 176.278600	 6.176704	 32.012280	-5.928787	-18.817510	-8.940186	-4.994761	 66.357220	 4.407551	-1.303265	 28.561840	 2.867211	 1.914478	 3.877671	-37.325660	-1.148922	 4.155809	-0.431501	-1.100248	-1.002806	-0.691040	-113.448400	 4.886709	 92.912560	 48.705920	 41.774360	 4.423441	 27.386380	-0.253479	 24.275460	-14.779690	 11.715560	 20.272860	-6.580301	 5.266122	 0.000000	 0.000000	 0.000000	 0.000000	 0.000000	 0.000000	 0.000000	 3.444064	-0.481307	-0.760424	 3.864943	 0.807790	 0.645946	 114.189900	-4.216538	-88.484700	-6.133490	 34.249670	-47.343870	-79.600400	-1.370475	-25.868070	 10.763070	 3.534065	-13.775230	-0.509961	 14.832430	 0.777617	 12.066250	 13.475720	-2.999213	-8.399680	 5.351300	-0.036148
 0.022190	 1.297238	 0.011849	-0.326039	 3.554060	 178.158400	-175.426300	 3.941938	-29.633090	 3.276723	-16.049820	 3.634386	-3.470601	 63.149780	 4.566608	 1.331492	 28.938720	-2.729976	 176.266000	 5.911087	 32.219670	-5.814813	-18.481700	-8.261686	-3.495699	 66.024190	 2.737034	-1.307729	 28.618980	 2.823895	 2.003714	 3.732787	-38.913330	-0.982592	 4.431499	-0.401150	-1.043918	-1.381988	-0.581868	-113.448800	 4.807887	 92.882020	 48.640600	 42.289790	 4.650019	 23.707400	-0.255847	 20.295630	-11.478890	 26.757180	 17.408120	-6.580301	 5.266122	 0.000000	 0.000000	 0.000000	 0.000000	 0.000000	 0.000000	 0.000000	 3.311049	-0.689468	-0.723937	 3.541424	 0.662705	 0.811986	 114.186100	-4.194097	-88.507260	-4.458038	 36.831840	-48.919080	-69.352720	-1.395487	-21.566780	 5.326491	 16.348520	-8.551801	-0.438510	 12.828520	 0.760532	 12.016030	 11.515150	-2.570902	-8.379913	 4.242091	 0.034461
 0.020771	 1.297684	 0.011130	-0.325454	 3.559166	 178.278900	-175.556900	 3.811102	-29.368880	 3.202077	-15.834800	 3.403606	-3.605534	 63.090420	 4.797024	 1.331492	 28.938720	-2.729976	 176.233500	 5.645104	 32.331400	-5.710236	-18.172390	-7.405247	-1.480193	 65.788500	 0.632739	-1.311891	 28.672810	 2.776036	 1.509478	 3.814545	-32.035780	-0.910020	 4.730267	-0.416717	-0.926724	-1.858487	-0.394970	-113.449400	 4.699791	 92.838490	 50.893750	 40.757480	 3.211543	 17.396110	-0.252671	 13.575400	-10.442450	 38.938850	 11.555650	-6.580301	 5.266122	 0.000000	 0.000000	 0.000000	 0.000000	 0.000000	 0.000000	 0.000000	 3.180011	-0.945560	-0.666297	 3.188159	 0.517810	 0.968525	 114.183300	-4.180017	-88.526170	-3.887619	 39.904100	-49.889660	-56.183920	-1.389414	-14.481250	 0.303788	 24.100340	 0.296582	-0.368973	 10.847090	 0.746263	 11.981310	 9.576292	-2.151787	-8.359303	 3.158532	 0.103721
 0.014276	 1.297900	 0.006535	-0.279904	 3.280190	 179.327400	-175.847000	 3.973193	-28.634220	 3.201222	-15.807770	 3.620414	-2.881757	 63.356520	 4.278847	 1.331492	 28.938720	-2.729976	 175.993300	 5.283944	 33.337470	-5.581800	-17.790920	-6.217372	 2.013570	 65.579930	-2.445002	-1.310943	 28.660400	 2.741010	 0.414427	 3.767968	-17.356690	-0.839786	 4.846529	-0.250201	-0.847584	-2.500060	-0.384145	-113.450200	 4.503272	 92.751740	 60.327720	 31.275680	-2.945978	 9.298114	-0.226596	 5.320081	-19.745790	 46.796860	 7.355310	-6.580301	 5.266122	 0.000000	 0.000000	 0.000000	 0.000000	 0.000000	 0.000000	 0.000000	 3.172330	-1.278651	-0.524434	 2.951561	 0.501855	 0.935177	 114.188900	-4.229537	-88.506640	-5.200606	 43.801430	-51.499940	-43.976810	-1.372611	-5.940949	-1.508045	 18.852590	 5.708667	-0.363256	 10.682760	 0.745203	 11.979080	 9.415489	-2.117181	-8.359199	 3.153432	 0.104034
 0.012391	 1.298038	 0.005300	-0.155165	 3.186625	 179.630800	-175.795600	 4.005707	-28.411400	 3.197482	-15.783840	 3.680612	-2.714414	 63.429600	 4.140159	 1.331492	 28.938720	-2.729976	 176.111500	 5.073750	 33.633700	-5.471604	-17.462220	-5.854959	 2.917745	 65.419430	-3.286219	-1.310677	 28.656900	 2.731132	-0.220974	 3.681770	-5.835732	-1.408391	 5.314965	 0.069792	-0.561824	-2.885784	-0.363858	-113.450500	 4.447823	 92.727260	 64.994980	 25.414950	-5.414225	 4.019826	-0.207835	-0.076555	-27.544240	 45.099770	 6.596571	-6.580301	 5.266122	 0.000000	 0.000000	 0.000000	 0.000000	 0.000000	 0.000000	 0.000000	 3.170313	-1.372600	-0.484427	 2.884859	 0.497429	 0.925860	 114.190500	-4.243508	-88.501110	-6.923504	 46.468690	-51.038150	-37.174030	-1.361907	-0.399484	 1.424444	 11.185640	 10.369490	-0.361645	 10.636400	 0.744908	 11.978470	 9.370136	-2.107424	-8.359170	 3.151994	 0.104122
 0.017871	 1.299151	 0.010399	 0.473791	 3.354188	 178.528100	-174.815700	 3.627942	-29.140220	 3.102760	-15.362870	 3.423165	-3.576221	 62.981750	 4.716416	 1.331492	 28.938720	-2.729976	 177.454900	 4.521745	 32.585880	-4.983491	-15.991570	-6.949411	-1.117629	 64.846330	 0.048329	-1.311688	 28.670160	 2.768571	 0.424770	 3.927661	-4.481333	-3.915071	 7.300892	 1.602874	 0.389850	-3.222064	-0.454872	-113.449500	 4.657910	 92.820010	 70.919490	 16.139560	-6.935462	 3.707250	-0.191718	-0.077690	-38.578560	 51.751540	 16.049630	-6.580301	 5.266122	 0.000000	 0.000000	 0.000000	 0.000000	 0.000000	 0.000000	 0.000000	 3.178305	-1.016544	-0.636061	 3.137724	 0.514347	 0.961379	 114.184500	-4.190565	-88.522020	-14.054020	 53.681410	-43.989060	-29.332270	-1.104142	-0.230438	 2.322728	 10.604320	 13.525840	-0.367754	 10.812070	 0.746036	 11.980830	 9.542022	-2.144410	-8.359281	 3.157444	 0.103788
 0.019719	 1.299520	 0.011903	 0.767776	 3.353307	 178.182000	-174.368700	 3.650214	-29.521030	 3.141514	-15.438180	 3.564840	-3.620840	 62.960170	 4.634955	 1.331492	 28.938720	-2.729976	 178.011600	 4.236460	 32.256270	-4.761547	-15.315140	-7.869950	-3.599517	 64.673110	 2.446581	-1.308310	 28.626470	 2.818219	 0.696532	 4.049752	-3.920774	-4.293791	 7.430877	 2.159158	 0.373180	-2.875425	-0.578306	-113.448900	 4.797560	 92.878040	 72.671140	 13.542530	-6.982343	 3.629423	-0.187773	-0.077935	-41.821720	 53.837830	 18.904120	-6.580301	 5.266122	 0.000000	 0.000000	 0.000000	 0.000000	 0.000000	 0.000000	 0.000000	 3.293632	-0.716744	-0.719192	 3.499049	 0.643629	 0.833724	 114.185600	-4.191145	-88.510210	-30.174070	 62.417800	-30.587730	-5.111528	-0.200812	 0.049613	-13.061600	 7.473923	 10.790560	-0.429239	 12.566050	 0.758494	 12.010590	 11.258340	-2.515157	-8.377224	 4.096787	 0.043732
 0.019714	 1.299425	 0.011661	 0.882680	 3.274088	 178.224600	-174.191300	 3.915713	-29.525170	 3.210453	-15.837110	 3.710689	-3.258965	 63.180330	 4.226263	 1.331492	 28.938720	-2.729976	 178.150100	 4.164567	 32.308170	-4.713408	-15.167820	-8.618794	-5.152948	 64.772700	 4.214523	-1.303024	 28.558770	 2.869538	 0.787020	 4.081870	-3.766865	-3.665945	 6.728872	 2.213290	-0.069607	-2.248007	-0.706152	-113.448400	 4.890939	 92.914180	 72.823140	 13.502300	-6.866333	 3.638124	-0.188160	-0.077888	-41.365360	 54.447250	 18.347680	-6.580301	 5.266122	 0.000000	 0.000000	 0.000000	 0.000000	 0.000000	 0.000000	 0.000000	 3.451216	-0.470124	-0.762398	 3.882329	 0.815589	 0.637012	 114.190100	-4.217743	-88.483480	-23.752450	 63.504730	-37.513570	-4.920791	-0.193332	 0.050271	-19.401260	 4.225823	 4.771426	-0.513837	 14.940120	 0.778613	 12.069380	 13.581080	-3.022379	-8.400706	 5.410908	-0.039935
